G04 #@! TF.GenerationSoftware,KiCad,Pcbnew,(5.0.0)*
G04 #@! TF.CreationDate,2018-10-10T12:57:49-06:00*
G04 #@! TF.ProjectId,AltoidsSmallsPCB,416C746F696473536D616C6C73504342,rev?*
G04 #@! TF.SameCoordinates,Original*
G04 #@! TF.FileFunction,Legend,Bot*
G04 #@! TF.FilePolarity,Positive*
%FSLAX46Y46*%
G04 Gerber Fmt 4.6, Leading zero omitted, Abs format (unit mm)*
G04 Created by KiCad (PCBNEW (5.0.0)) date 10/10/18 12:57:49*
%MOMM*%
%LPD*%
G01*
G04 APERTURE LIST*
%ADD10C,0.200000*%
G04 APERTURE END LIST*
D10*
X152400000Y-82550000D02*
X152400000Y-95250000D01*
X149860000Y-82550000D02*
X149860000Y-95250000D01*
X147320000Y-82550000D02*
X147320000Y-95250000D01*
X144780000Y-82550000D02*
X144780000Y-95250000D01*
X142240000Y-82550000D02*
X142240000Y-95250000D01*
X139700000Y-82550000D02*
X139700000Y-95250000D01*
X137160000Y-82550000D02*
X137160000Y-95250000D01*
X134620000Y-82550000D02*
X134620000Y-95250000D01*
X132080000Y-82550000D02*
X132080000Y-95250000D01*
X129540000Y-82550000D02*
X129540000Y-95250000D01*
X127000000Y-82550000D02*
X127000000Y-95250000D01*
X124460000Y-82550000D02*
X124460000Y-95250000D01*
X121920000Y-82550000D02*
X121920000Y-95250000D01*
X119380000Y-82550000D02*
X119380000Y-95250000D01*
X116840000Y-82550000D02*
X116840000Y-95250000D01*
X114300000Y-82550000D02*
X114300000Y-95250000D01*
X152400000Y-77470000D02*
X152400000Y-64770000D01*
X149860000Y-77470000D02*
X149860000Y-64770000D01*
X147320000Y-77470000D02*
X147320000Y-64770000D01*
X144780000Y-77470000D02*
X144780000Y-64770000D01*
X142240000Y-77470000D02*
X142240000Y-64770000D01*
X139700000Y-77470000D02*
X139700000Y-64770000D01*
X137160000Y-77470000D02*
X137160000Y-64770000D01*
X134620000Y-77470000D02*
X134620000Y-64770000D01*
X132080000Y-77470000D02*
X132080000Y-64770000D01*
X129540000Y-77470000D02*
X129540000Y-64770000D01*
X127000000Y-77470000D02*
X127000000Y-64770000D01*
X124460000Y-77470000D02*
X124460000Y-64770000D01*
X121920000Y-77470000D02*
X121920000Y-64770000D01*
X119380000Y-77470000D02*
X119380000Y-64770000D01*
X114300000Y-77470000D02*
X114300000Y-64770000D01*
X116840000Y-64770000D02*
X116840000Y-77470000D01*
X152400000Y-82550000D02*
X152400000Y-80010000D01*
X114300000Y-82550000D02*
X152400000Y-82550000D01*
X114300000Y-80010000D02*
X114300000Y-82550000D01*
X114300000Y-77470000D02*
X114300000Y-80010000D01*
X152400000Y-77470000D02*
X114300000Y-77470000D01*
X152400000Y-80010000D02*
X152400000Y-77470000D01*
X114300000Y-80010000D02*
X152400000Y-80010000D01*
M02*
