G04 #@! TF.GenerationSoftware,KiCad,Pcbnew,(5.0.0)*
G04 #@! TF.CreationDate,2018-10-10T12:57:49-06:00*
G04 #@! TF.ProjectId,AltoidsSmallsPCB,416C746F696473536D616C6C73504342,rev?*
G04 #@! TF.SameCoordinates,Original*
G04 #@! TF.FileFunction,Soldermask,Bot*
G04 #@! TF.FilePolarity,Negative*
%FSLAX46Y46*%
G04 Gerber Fmt 4.6, Leading zero omitted, Abs format (unit mm)*
G04 Created by KiCad (PCBNEW (5.0.0)) date 10/10/18 12:57:49*
%MOMM*%
%LPD*%
G01*
G04 APERTURE LIST*
%ADD10O,1.700000X1.700000*%
%ADD11R,1.700000X1.700000*%
G04 APERTURE END LIST*
D10*
G04 #@! TO.C,J37*
X115570000Y-81280000D03*
X118110000Y-81280000D03*
X120650000Y-81280000D03*
X123190000Y-81280000D03*
X125730000Y-81280000D03*
X128270000Y-81280000D03*
X130810000Y-81280000D03*
X133350000Y-81280000D03*
X135890000Y-81280000D03*
X138430000Y-81280000D03*
X140970000Y-81280000D03*
X143510000Y-81280000D03*
X146050000Y-81280000D03*
X148590000Y-81280000D03*
D11*
X151130000Y-81280000D03*
G04 #@! TD*
D10*
G04 #@! TO.C,J38*
X151130000Y-78740000D03*
X148590000Y-78740000D03*
X146050000Y-78740000D03*
X143510000Y-78740000D03*
X140970000Y-78740000D03*
X138430000Y-78740000D03*
X135890000Y-78740000D03*
X133350000Y-78740000D03*
X130810000Y-78740000D03*
X128270000Y-78740000D03*
X125730000Y-78740000D03*
X123190000Y-78740000D03*
X120650000Y-78740000D03*
X118110000Y-78740000D03*
D11*
X115570000Y-78740000D03*
G04 #@! TD*
G04 #@! TO.C,J23*
X148590000Y-66040000D03*
D10*
X148590000Y-68580000D03*
X148590000Y-71120000D03*
X148590000Y-73660000D03*
X148590000Y-76200000D03*
G04 #@! TD*
D11*
G04 #@! TO.C,J9*
X143510000Y-93980000D03*
D10*
X143510000Y-91440000D03*
X143510000Y-88900000D03*
X143510000Y-86360000D03*
X143510000Y-83820000D03*
G04 #@! TD*
D11*
G04 #@! TO.C,J22*
X133350000Y-66040000D03*
D10*
X133350000Y-68580000D03*
X133350000Y-71120000D03*
X133350000Y-73660000D03*
X133350000Y-76200000D03*
G04 #@! TD*
D11*
G04 #@! TO.C,J21*
X130810000Y-93980000D03*
D10*
X130810000Y-91440000D03*
X130810000Y-88900000D03*
X130810000Y-86360000D03*
X130810000Y-83820000D03*
G04 #@! TD*
D11*
G04 #@! TO.C,J1*
X123190000Y-66040000D03*
D10*
X123190000Y-68580000D03*
X123190000Y-71120000D03*
X123190000Y-73660000D03*
X123190000Y-76200000D03*
G04 #@! TD*
D11*
G04 #@! TO.C,J19*
X138430000Y-93980000D03*
D10*
X138430000Y-91440000D03*
X138430000Y-88900000D03*
X138430000Y-86360000D03*
X138430000Y-83820000D03*
G04 #@! TD*
D11*
G04 #@! TO.C,J4*
X140970000Y-93980000D03*
D10*
X140970000Y-91440000D03*
X140970000Y-88900000D03*
X140970000Y-86360000D03*
X140970000Y-83820000D03*
G04 #@! TD*
D11*
G04 #@! TO.C,J17*
X128270000Y-66040000D03*
D10*
X128270000Y-68580000D03*
X128270000Y-71120000D03*
X128270000Y-73660000D03*
X128270000Y-76200000D03*
G04 #@! TD*
D11*
G04 #@! TO.C,J5*
X148590000Y-93980000D03*
D10*
X148590000Y-91440000D03*
X148590000Y-88900000D03*
X148590000Y-86360000D03*
X148590000Y-83820000D03*
G04 #@! TD*
D11*
G04 #@! TO.C,J15*
X151130000Y-93980000D03*
D10*
X151130000Y-91440000D03*
X151130000Y-88900000D03*
X151130000Y-86360000D03*
X151130000Y-83820000D03*
G04 #@! TD*
D11*
G04 #@! TO.C,J14*
X115570000Y-66040000D03*
D10*
X115570000Y-68580000D03*
X115570000Y-71120000D03*
X115570000Y-73660000D03*
X115570000Y-76200000D03*
G04 #@! TD*
D11*
G04 #@! TO.C,J13*
X118110000Y-66040000D03*
D10*
X118110000Y-68580000D03*
X118110000Y-71120000D03*
X118110000Y-73660000D03*
X118110000Y-76200000D03*
G04 #@! TD*
D11*
G04 #@! TO.C,J12*
X120650000Y-66040000D03*
D10*
X120650000Y-68580000D03*
X120650000Y-71120000D03*
X120650000Y-73660000D03*
X120650000Y-76200000D03*
G04 #@! TD*
D11*
G04 #@! TO.C,J11*
X115570000Y-93980000D03*
D10*
X115570000Y-91440000D03*
X115570000Y-88900000D03*
X115570000Y-86360000D03*
X115570000Y-83820000D03*
G04 #@! TD*
D11*
G04 #@! TO.C,J10*
X146050000Y-93980000D03*
D10*
X146050000Y-91440000D03*
X146050000Y-88900000D03*
X146050000Y-86360000D03*
X146050000Y-83820000D03*
G04 #@! TD*
D11*
G04 #@! TO.C,J2*
X123190000Y-93980000D03*
D10*
X123190000Y-91440000D03*
X123190000Y-88900000D03*
X123190000Y-86360000D03*
X123190000Y-83820000D03*
G04 #@! TD*
D11*
G04 #@! TO.C,J25*
X133350000Y-93980000D03*
D10*
X133350000Y-91440000D03*
X133350000Y-88900000D03*
X133350000Y-86360000D03*
X133350000Y-83820000D03*
G04 #@! TD*
D11*
G04 #@! TO.C,J26*
X135890000Y-66040000D03*
D10*
X135890000Y-68580000D03*
X135890000Y-71120000D03*
X135890000Y-73660000D03*
X135890000Y-76200000D03*
G04 #@! TD*
D11*
G04 #@! TO.C,J27*
X125730000Y-93980000D03*
D10*
X125730000Y-91440000D03*
X125730000Y-88900000D03*
X125730000Y-86360000D03*
X125730000Y-83820000D03*
G04 #@! TD*
D11*
G04 #@! TO.C,J28*
X146050000Y-66040000D03*
D10*
X146050000Y-68580000D03*
X146050000Y-71120000D03*
X146050000Y-73660000D03*
X146050000Y-76200000D03*
G04 #@! TD*
D11*
G04 #@! TO.C,J29*
X130810000Y-66040000D03*
D10*
X130810000Y-68580000D03*
X130810000Y-71120000D03*
X130810000Y-73660000D03*
X130810000Y-76200000D03*
G04 #@! TD*
D11*
G04 #@! TO.C,J30*
X140970000Y-66040000D03*
D10*
X140970000Y-68580000D03*
X140970000Y-71120000D03*
X140970000Y-73660000D03*
X140970000Y-76200000D03*
G04 #@! TD*
D11*
G04 #@! TO.C,J31*
X151130000Y-66040000D03*
D10*
X151130000Y-68580000D03*
X151130000Y-71120000D03*
X151130000Y-73660000D03*
X151130000Y-76200000D03*
G04 #@! TD*
D11*
G04 #@! TO.C,J32*
X143510000Y-66040000D03*
D10*
X143510000Y-68580000D03*
X143510000Y-71120000D03*
X143510000Y-73660000D03*
X143510000Y-76200000D03*
G04 #@! TD*
D11*
G04 #@! TO.C,J33*
X128270000Y-93980000D03*
D10*
X128270000Y-91440000D03*
X128270000Y-88900000D03*
X128270000Y-86360000D03*
X128270000Y-83820000D03*
G04 #@! TD*
D11*
G04 #@! TO.C,J34*
X138430000Y-66040000D03*
D10*
X138430000Y-68580000D03*
X138430000Y-71120000D03*
X138430000Y-73660000D03*
X138430000Y-76200000D03*
G04 #@! TD*
D11*
G04 #@! TO.C,J35*
X120650000Y-93980000D03*
D10*
X120650000Y-91440000D03*
X120650000Y-88900000D03*
X120650000Y-86360000D03*
X120650000Y-83820000D03*
G04 #@! TD*
D11*
G04 #@! TO.C,J36*
X118110000Y-93980000D03*
D10*
X118110000Y-91440000D03*
X118110000Y-88900000D03*
X118110000Y-86360000D03*
X118110000Y-83820000D03*
G04 #@! TD*
D11*
G04 #@! TO.C,J24*
X135890000Y-93980000D03*
D10*
X135890000Y-91440000D03*
X135890000Y-88900000D03*
X135890000Y-86360000D03*
X135890000Y-83820000D03*
G04 #@! TD*
D11*
G04 #@! TO.C,J7*
X125730000Y-66040000D03*
D10*
X125730000Y-68580000D03*
X125730000Y-71120000D03*
X125730000Y-73660000D03*
X125730000Y-76200000D03*
G04 #@! TD*
D11*
G04 #@! TO.C,J6*
X107950000Y-71120000D03*
D10*
X107950000Y-73660000D03*
X107950000Y-76200000D03*
X107950000Y-78740000D03*
X107950000Y-81280000D03*
X107950000Y-83820000D03*
X107950000Y-86360000D03*
X107950000Y-88900000D03*
G04 #@! TD*
D11*
G04 #@! TO.C,J8*
X153670000Y-88900000D03*
D10*
X153670000Y-86360000D03*
X153670000Y-83820000D03*
X153670000Y-81280000D03*
X153670000Y-78740000D03*
X153670000Y-76200000D03*
X153670000Y-73660000D03*
X153670000Y-71120000D03*
G04 #@! TD*
D11*
G04 #@! TO.C,J16*
X156210000Y-71120000D03*
D10*
X156210000Y-73660000D03*
X156210000Y-76200000D03*
X156210000Y-78740000D03*
X156210000Y-81280000D03*
X156210000Y-83820000D03*
X156210000Y-86360000D03*
X156210000Y-88900000D03*
G04 #@! TD*
D11*
G04 #@! TO.C,J18*
X158750000Y-88900000D03*
D10*
X158750000Y-86360000D03*
X158750000Y-83820000D03*
X158750000Y-81280000D03*
X158750000Y-78740000D03*
X158750000Y-76200000D03*
X158750000Y-73660000D03*
X158750000Y-71120000D03*
G04 #@! TD*
D11*
G04 #@! TO.C,J20*
X113030000Y-71120000D03*
D10*
X113030000Y-73660000D03*
X113030000Y-76200000D03*
X113030000Y-78740000D03*
X113030000Y-81280000D03*
X113030000Y-83820000D03*
X113030000Y-86360000D03*
X113030000Y-88900000D03*
G04 #@! TD*
D11*
G04 #@! TO.C,J3*
X110490000Y-88900000D03*
D10*
X110490000Y-86360000D03*
X110490000Y-83820000D03*
X110490000Y-81280000D03*
X110490000Y-78740000D03*
X110490000Y-76200000D03*
X110490000Y-73660000D03*
X110490000Y-71120000D03*
G04 #@! TD*
M02*
