G04 #@! TF.GenerationSoftware,KiCad,Pcbnew,(5.0.0)*
G04 #@! TF.CreationDate,2018-10-10T12:57:49-06:00*
G04 #@! TF.ProjectId,AltoidsSmallsPCB,416C746F696473536D616C6C73504342,rev?*
G04 #@! TF.SameCoordinates,Original*
G04 #@! TF.FileFunction,Soldermask,Top*
G04 #@! TF.FilePolarity,Negative*
%FSLAX46Y46*%
G04 Gerber Fmt 4.6, Leading zero omitted, Abs format (unit mm)*
G04 Created by KiCad (PCBNEW (5.0.0)) date 10/10/18 12:57:49*
%MOMM*%
%LPD*%
G01*
G04 APERTURE LIST*
%ADD10O,1.700000X1.700000*%
%ADD11R,1.700000X1.700000*%
%ADD12C,0.254000*%
G04 APERTURE END LIST*
D10*
G04 #@! TO.C,J37*
X115570000Y-81280000D03*
X118110000Y-81280000D03*
X120650000Y-81280000D03*
X123190000Y-81280000D03*
X125730000Y-81280000D03*
X128270000Y-81280000D03*
X130810000Y-81280000D03*
X133350000Y-81280000D03*
X135890000Y-81280000D03*
X138430000Y-81280000D03*
X140970000Y-81280000D03*
X143510000Y-81280000D03*
X146050000Y-81280000D03*
X148590000Y-81280000D03*
D11*
X151130000Y-81280000D03*
G04 #@! TD*
D10*
G04 #@! TO.C,J38*
X151130000Y-78740000D03*
X148590000Y-78740000D03*
X146050000Y-78740000D03*
X143510000Y-78740000D03*
X140970000Y-78740000D03*
X138430000Y-78740000D03*
X135890000Y-78740000D03*
X133350000Y-78740000D03*
X130810000Y-78740000D03*
X128270000Y-78740000D03*
X125730000Y-78740000D03*
X123190000Y-78740000D03*
X120650000Y-78740000D03*
X118110000Y-78740000D03*
D11*
X115570000Y-78740000D03*
G04 #@! TD*
G04 #@! TO.C,J23*
X148590000Y-66040000D03*
D10*
X148590000Y-68580000D03*
X148590000Y-71120000D03*
X148590000Y-73660000D03*
X148590000Y-76200000D03*
G04 #@! TD*
D11*
G04 #@! TO.C,J9*
X143510000Y-93980000D03*
D10*
X143510000Y-91440000D03*
X143510000Y-88900000D03*
X143510000Y-86360000D03*
X143510000Y-83820000D03*
G04 #@! TD*
D11*
G04 #@! TO.C,J22*
X133350000Y-66040000D03*
D10*
X133350000Y-68580000D03*
X133350000Y-71120000D03*
X133350000Y-73660000D03*
X133350000Y-76200000D03*
G04 #@! TD*
D11*
G04 #@! TO.C,J21*
X130810000Y-93980000D03*
D10*
X130810000Y-91440000D03*
X130810000Y-88900000D03*
X130810000Y-86360000D03*
X130810000Y-83820000D03*
G04 #@! TD*
D11*
G04 #@! TO.C,J1*
X123190000Y-66040000D03*
D10*
X123190000Y-68580000D03*
X123190000Y-71120000D03*
X123190000Y-73660000D03*
X123190000Y-76200000D03*
G04 #@! TD*
D11*
G04 #@! TO.C,J19*
X138430000Y-93980000D03*
D10*
X138430000Y-91440000D03*
X138430000Y-88900000D03*
X138430000Y-86360000D03*
X138430000Y-83820000D03*
G04 #@! TD*
D11*
G04 #@! TO.C,J4*
X140970000Y-93980000D03*
D10*
X140970000Y-91440000D03*
X140970000Y-88900000D03*
X140970000Y-86360000D03*
X140970000Y-83820000D03*
G04 #@! TD*
D11*
G04 #@! TO.C,J17*
X128270000Y-66040000D03*
D10*
X128270000Y-68580000D03*
X128270000Y-71120000D03*
X128270000Y-73660000D03*
X128270000Y-76200000D03*
G04 #@! TD*
D11*
G04 #@! TO.C,J5*
X148590000Y-93980000D03*
D10*
X148590000Y-91440000D03*
X148590000Y-88900000D03*
X148590000Y-86360000D03*
X148590000Y-83820000D03*
G04 #@! TD*
D11*
G04 #@! TO.C,J15*
X151130000Y-93980000D03*
D10*
X151130000Y-91440000D03*
X151130000Y-88900000D03*
X151130000Y-86360000D03*
X151130000Y-83820000D03*
G04 #@! TD*
D11*
G04 #@! TO.C,J14*
X115570000Y-66040000D03*
D10*
X115570000Y-68580000D03*
X115570000Y-71120000D03*
X115570000Y-73660000D03*
X115570000Y-76200000D03*
G04 #@! TD*
D11*
G04 #@! TO.C,J13*
X118110000Y-66040000D03*
D10*
X118110000Y-68580000D03*
X118110000Y-71120000D03*
X118110000Y-73660000D03*
X118110000Y-76200000D03*
G04 #@! TD*
D11*
G04 #@! TO.C,J12*
X120650000Y-66040000D03*
D10*
X120650000Y-68580000D03*
X120650000Y-71120000D03*
X120650000Y-73660000D03*
X120650000Y-76200000D03*
G04 #@! TD*
D11*
G04 #@! TO.C,J11*
X115570000Y-93980000D03*
D10*
X115570000Y-91440000D03*
X115570000Y-88900000D03*
X115570000Y-86360000D03*
X115570000Y-83820000D03*
G04 #@! TD*
D11*
G04 #@! TO.C,J10*
X146050000Y-93980000D03*
D10*
X146050000Y-91440000D03*
X146050000Y-88900000D03*
X146050000Y-86360000D03*
X146050000Y-83820000D03*
G04 #@! TD*
D11*
G04 #@! TO.C,J2*
X123190000Y-93980000D03*
D10*
X123190000Y-91440000D03*
X123190000Y-88900000D03*
X123190000Y-86360000D03*
X123190000Y-83820000D03*
G04 #@! TD*
D11*
G04 #@! TO.C,J25*
X133350000Y-93980000D03*
D10*
X133350000Y-91440000D03*
X133350000Y-88900000D03*
X133350000Y-86360000D03*
X133350000Y-83820000D03*
G04 #@! TD*
D11*
G04 #@! TO.C,J26*
X135890000Y-66040000D03*
D10*
X135890000Y-68580000D03*
X135890000Y-71120000D03*
X135890000Y-73660000D03*
X135890000Y-76200000D03*
G04 #@! TD*
D11*
G04 #@! TO.C,J27*
X125730000Y-93980000D03*
D10*
X125730000Y-91440000D03*
X125730000Y-88900000D03*
X125730000Y-86360000D03*
X125730000Y-83820000D03*
G04 #@! TD*
D11*
G04 #@! TO.C,J28*
X146050000Y-66040000D03*
D10*
X146050000Y-68580000D03*
X146050000Y-71120000D03*
X146050000Y-73660000D03*
X146050000Y-76200000D03*
G04 #@! TD*
D11*
G04 #@! TO.C,J29*
X130810000Y-66040000D03*
D10*
X130810000Y-68580000D03*
X130810000Y-71120000D03*
X130810000Y-73660000D03*
X130810000Y-76200000D03*
G04 #@! TD*
D11*
G04 #@! TO.C,J30*
X140970000Y-66040000D03*
D10*
X140970000Y-68580000D03*
X140970000Y-71120000D03*
X140970000Y-73660000D03*
X140970000Y-76200000D03*
G04 #@! TD*
D11*
G04 #@! TO.C,J31*
X151130000Y-66040000D03*
D10*
X151130000Y-68580000D03*
X151130000Y-71120000D03*
X151130000Y-73660000D03*
X151130000Y-76200000D03*
G04 #@! TD*
D11*
G04 #@! TO.C,J32*
X143510000Y-66040000D03*
D10*
X143510000Y-68580000D03*
X143510000Y-71120000D03*
X143510000Y-73660000D03*
X143510000Y-76200000D03*
G04 #@! TD*
D11*
G04 #@! TO.C,J33*
X128270000Y-93980000D03*
D10*
X128270000Y-91440000D03*
X128270000Y-88900000D03*
X128270000Y-86360000D03*
X128270000Y-83820000D03*
G04 #@! TD*
D11*
G04 #@! TO.C,J34*
X138430000Y-66040000D03*
D10*
X138430000Y-68580000D03*
X138430000Y-71120000D03*
X138430000Y-73660000D03*
X138430000Y-76200000D03*
G04 #@! TD*
D11*
G04 #@! TO.C,J35*
X120650000Y-93980000D03*
D10*
X120650000Y-91440000D03*
X120650000Y-88900000D03*
X120650000Y-86360000D03*
X120650000Y-83820000D03*
G04 #@! TD*
D11*
G04 #@! TO.C,J36*
X118110000Y-93980000D03*
D10*
X118110000Y-91440000D03*
X118110000Y-88900000D03*
X118110000Y-86360000D03*
X118110000Y-83820000D03*
G04 #@! TD*
D11*
G04 #@! TO.C,J24*
X135890000Y-93980000D03*
D10*
X135890000Y-91440000D03*
X135890000Y-88900000D03*
X135890000Y-86360000D03*
X135890000Y-83820000D03*
G04 #@! TD*
D11*
G04 #@! TO.C,J7*
X125730000Y-66040000D03*
D10*
X125730000Y-68580000D03*
X125730000Y-71120000D03*
X125730000Y-73660000D03*
X125730000Y-76200000D03*
G04 #@! TD*
D11*
G04 #@! TO.C,J6*
X107950000Y-71120000D03*
D10*
X107950000Y-73660000D03*
X107950000Y-76200000D03*
X107950000Y-78740000D03*
X107950000Y-81280000D03*
X107950000Y-83820000D03*
X107950000Y-86360000D03*
X107950000Y-88900000D03*
G04 #@! TD*
D11*
G04 #@! TO.C,J8*
X153670000Y-88900000D03*
D10*
X153670000Y-86360000D03*
X153670000Y-83820000D03*
X153670000Y-81280000D03*
X153670000Y-78740000D03*
X153670000Y-76200000D03*
X153670000Y-73660000D03*
X153670000Y-71120000D03*
G04 #@! TD*
D11*
G04 #@! TO.C,J16*
X156210000Y-71120000D03*
D10*
X156210000Y-73660000D03*
X156210000Y-76200000D03*
X156210000Y-78740000D03*
X156210000Y-81280000D03*
X156210000Y-83820000D03*
X156210000Y-86360000D03*
X156210000Y-88900000D03*
G04 #@! TD*
D11*
G04 #@! TO.C,J18*
X158750000Y-88900000D03*
D10*
X158750000Y-86360000D03*
X158750000Y-83820000D03*
X158750000Y-81280000D03*
X158750000Y-78740000D03*
X158750000Y-76200000D03*
X158750000Y-73660000D03*
X158750000Y-71120000D03*
G04 #@! TD*
D11*
G04 #@! TO.C,J20*
X113030000Y-71120000D03*
D10*
X113030000Y-73660000D03*
X113030000Y-76200000D03*
X113030000Y-78740000D03*
X113030000Y-81280000D03*
X113030000Y-83820000D03*
X113030000Y-86360000D03*
X113030000Y-88900000D03*
G04 #@! TD*
D11*
G04 #@! TO.C,J3*
X110490000Y-88900000D03*
D10*
X110490000Y-86360000D03*
X110490000Y-83820000D03*
X110490000Y-81280000D03*
X110490000Y-78740000D03*
X110490000Y-76200000D03*
X110490000Y-73660000D03*
X110490000Y-71120000D03*
G04 #@! TD*
D12*
G36*
X115824000Y-75438000D02*
X115316000Y-75438000D01*
X115316000Y-66929000D01*
X115824000Y-66929000D01*
X115824000Y-75438000D01*
X115824000Y-75438000D01*
G37*
X115824000Y-75438000D02*
X115316000Y-75438000D01*
X115316000Y-66929000D01*
X115824000Y-66929000D01*
X115824000Y-75438000D01*
G36*
X118364000Y-75565000D02*
X117856000Y-75565000D01*
X117856000Y-66929000D01*
X118364000Y-66929000D01*
X118364000Y-75565000D01*
X118364000Y-75565000D01*
G37*
X118364000Y-75565000D02*
X117856000Y-75565000D01*
X117856000Y-66929000D01*
X118364000Y-66929000D01*
X118364000Y-75565000D01*
G36*
X120879093Y-66926534D02*
X120904000Y-66926560D01*
X120904000Y-75565000D01*
X120396000Y-75565000D01*
X120396000Y-66829915D01*
X120879093Y-66926534D01*
X120879093Y-66926534D01*
G37*
X120879093Y-66926534D02*
X120904000Y-66926560D01*
X120904000Y-75565000D01*
X120396000Y-75565000D01*
X120396000Y-66829915D01*
X120879093Y-66926534D01*
G36*
X123444000Y-75438000D02*
X122936000Y-75438000D01*
X122936000Y-66929000D01*
X123444000Y-66929000D01*
X123444000Y-75438000D01*
X123444000Y-75438000D01*
G37*
X123444000Y-75438000D02*
X122936000Y-75438000D01*
X122936000Y-66929000D01*
X123444000Y-66929000D01*
X123444000Y-75438000D01*
G36*
X150368000Y-78994000D02*
X116459000Y-78994000D01*
X116459000Y-78486000D01*
X150368000Y-78486000D01*
X150368000Y-78994000D01*
X150368000Y-78994000D01*
G37*
X150368000Y-78994000D02*
X116459000Y-78994000D01*
X116459000Y-78486000D01*
X150368000Y-78486000D01*
X150368000Y-78994000D01*
G36*
X150368000Y-81534000D02*
X116332000Y-81534000D01*
X116332000Y-81026000D01*
X150368000Y-81026000D01*
X150368000Y-81534000D01*
X150368000Y-81534000D01*
G37*
X150368000Y-81534000D02*
X116332000Y-81534000D01*
X116332000Y-81026000D01*
X150368000Y-81026000D01*
X150368000Y-81534000D01*
G36*
X125984000Y-75438000D02*
X125476000Y-75438000D01*
X125476000Y-66929000D01*
X125984000Y-66929000D01*
X125984000Y-75438000D01*
X125984000Y-75438000D01*
G37*
X125984000Y-75438000D02*
X125476000Y-75438000D01*
X125476000Y-66929000D01*
X125984000Y-66929000D01*
X125984000Y-75438000D01*
G36*
X128524000Y-75438000D02*
X128016000Y-75438000D01*
X128016000Y-66929000D01*
X128524000Y-66929000D01*
X128524000Y-75438000D01*
X128524000Y-75438000D01*
G37*
X128524000Y-75438000D02*
X128016000Y-75438000D01*
X128016000Y-66929000D01*
X128524000Y-66929000D01*
X128524000Y-75438000D01*
G36*
X131064000Y-75438000D02*
X130556000Y-75438000D01*
X130556000Y-66929000D01*
X131064000Y-66929000D01*
X131064000Y-75438000D01*
X131064000Y-75438000D01*
G37*
X131064000Y-75438000D02*
X130556000Y-75438000D01*
X130556000Y-66929000D01*
X131064000Y-66929000D01*
X131064000Y-75438000D01*
G36*
X133604000Y-75438000D02*
X133096000Y-75438000D01*
X133096000Y-66929000D01*
X133604000Y-66929000D01*
X133604000Y-75438000D01*
X133604000Y-75438000D01*
G37*
X133604000Y-75438000D02*
X133096000Y-75438000D01*
X133096000Y-66929000D01*
X133604000Y-66929000D01*
X133604000Y-75438000D01*
G36*
X136144000Y-75438000D02*
X135636000Y-75438000D01*
X135636000Y-66929000D01*
X136144000Y-66929000D01*
X136144000Y-75438000D01*
X136144000Y-75438000D01*
G37*
X136144000Y-75438000D02*
X135636000Y-75438000D01*
X135636000Y-66929000D01*
X136144000Y-66929000D01*
X136144000Y-75438000D01*
G36*
X138684000Y-75438000D02*
X138176000Y-75438000D01*
X138176000Y-66929000D01*
X138684000Y-66929000D01*
X138684000Y-75438000D01*
X138684000Y-75438000D01*
G37*
X138684000Y-75438000D02*
X138176000Y-75438000D01*
X138176000Y-66929000D01*
X138684000Y-66929000D01*
X138684000Y-75438000D01*
G36*
X141224000Y-75565000D02*
X140716000Y-75565000D01*
X140716000Y-66929000D01*
X141224000Y-66929000D01*
X141224000Y-75565000D01*
X141224000Y-75565000D01*
G37*
X141224000Y-75565000D02*
X140716000Y-75565000D01*
X140716000Y-66929000D01*
X141224000Y-66929000D01*
X141224000Y-75565000D01*
G36*
X143764000Y-75542082D02*
X143256000Y-75457415D01*
X143256000Y-66929000D01*
X143764000Y-66929000D01*
X143764000Y-75542082D01*
X143764000Y-75542082D01*
G37*
X143764000Y-75542082D02*
X143256000Y-75457415D01*
X143256000Y-66929000D01*
X143764000Y-66929000D01*
X143764000Y-75542082D01*
G36*
X146304000Y-75438000D02*
X145796000Y-75438000D01*
X145796000Y-66929000D01*
X146304000Y-66929000D01*
X146304000Y-75438000D01*
X146304000Y-75438000D01*
G37*
X146304000Y-75438000D02*
X145796000Y-75438000D01*
X145796000Y-66929000D01*
X146304000Y-66929000D01*
X146304000Y-75438000D01*
G36*
X148844000Y-75438000D02*
X148336000Y-75438000D01*
X148336000Y-66909585D01*
X148844000Y-66824919D01*
X148844000Y-75438000D01*
X148844000Y-75438000D01*
G37*
X148844000Y-75438000D02*
X148336000Y-75438000D01*
X148336000Y-66909585D01*
X148844000Y-66824919D01*
X148844000Y-75438000D01*
G36*
X151384000Y-75438000D02*
X150876000Y-75438000D01*
X150876000Y-66929000D01*
X151384000Y-66929000D01*
X151384000Y-75438000D01*
X151384000Y-75438000D01*
G37*
X151384000Y-75438000D02*
X150876000Y-75438000D01*
X150876000Y-66929000D01*
X151384000Y-66929000D01*
X151384000Y-75438000D01*
G36*
X115824000Y-93218000D02*
X115316000Y-93218000D01*
X115316000Y-84582000D01*
X115824000Y-84582000D01*
X115824000Y-93218000D01*
X115824000Y-93218000D01*
G37*
X115824000Y-93218000D02*
X115316000Y-93218000D01*
X115316000Y-84582000D01*
X115824000Y-84582000D01*
X115824000Y-93218000D01*
G36*
X118364000Y-93110415D02*
X117856000Y-93195082D01*
X117856000Y-84582000D01*
X118364000Y-84582000D01*
X118364000Y-93110415D01*
X118364000Y-93110415D01*
G37*
X118364000Y-93110415D02*
X117856000Y-93195082D01*
X117856000Y-84582000D01*
X118364000Y-84582000D01*
X118364000Y-93110415D01*
G36*
X120904000Y-93091000D02*
X120396000Y-93091000D01*
X120396000Y-84582000D01*
X120904000Y-84582000D01*
X120904000Y-93091000D01*
X120904000Y-93091000D01*
G37*
X120904000Y-93091000D02*
X120396000Y-93091000D01*
X120396000Y-84582000D01*
X120904000Y-84582000D01*
X120904000Y-93091000D01*
G36*
X123444000Y-93091000D02*
X122936000Y-93091000D01*
X122936000Y-84582000D01*
X123444000Y-84582000D01*
X123444000Y-93091000D01*
X123444000Y-93091000D01*
G37*
X123444000Y-93091000D02*
X122936000Y-93091000D01*
X122936000Y-84582000D01*
X123444000Y-84582000D01*
X123444000Y-93091000D01*
G36*
X125984000Y-93091000D02*
X125476000Y-93091000D01*
X125476000Y-84582000D01*
X125984000Y-84582000D01*
X125984000Y-93091000D01*
X125984000Y-93091000D01*
G37*
X125984000Y-93091000D02*
X125476000Y-93091000D01*
X125476000Y-84582000D01*
X125984000Y-84582000D01*
X125984000Y-93091000D01*
G36*
X128524000Y-93195082D02*
X128016000Y-93110415D01*
X128016000Y-84582000D01*
X128524000Y-84582000D01*
X128524000Y-93195082D01*
X128524000Y-93195082D01*
G37*
X128524000Y-93195082D02*
X128016000Y-93110415D01*
X128016000Y-84582000D01*
X128524000Y-84582000D01*
X128524000Y-93195082D01*
G36*
X131064000Y-93091000D02*
X130556000Y-93091000D01*
X130556000Y-84582000D01*
X131064000Y-84582000D01*
X131064000Y-93091000D01*
X131064000Y-93091000D01*
G37*
X131064000Y-93091000D02*
X130556000Y-93091000D01*
X130556000Y-84582000D01*
X131064000Y-84582000D01*
X131064000Y-93091000D01*
G36*
X133604000Y-93091000D02*
X133096000Y-93091000D01*
X133096000Y-84582000D01*
X133604000Y-84582000D01*
X133604000Y-93091000D01*
X133604000Y-93091000D01*
G37*
X133604000Y-93091000D02*
X133096000Y-93091000D01*
X133096000Y-84582000D01*
X133604000Y-84582000D01*
X133604000Y-93091000D01*
G36*
X136144000Y-93218000D02*
X135636000Y-93218000D01*
X135636000Y-84582000D01*
X136144000Y-84582000D01*
X136144000Y-93218000D01*
X136144000Y-93218000D01*
G37*
X136144000Y-93218000D02*
X135636000Y-93218000D01*
X135636000Y-84582000D01*
X136144000Y-84582000D01*
X136144000Y-93218000D01*
G36*
X138684000Y-93218000D02*
X138176000Y-93218000D01*
X138176000Y-84582000D01*
X138684000Y-84582000D01*
X138684000Y-93218000D01*
X138684000Y-93218000D01*
G37*
X138684000Y-93218000D02*
X138176000Y-93218000D01*
X138176000Y-84582000D01*
X138684000Y-84582000D01*
X138684000Y-93218000D01*
G36*
X141224000Y-93195082D02*
X140716000Y-93110415D01*
X140716000Y-84582000D01*
X141224000Y-84582000D01*
X141224000Y-93195082D01*
X141224000Y-93195082D01*
G37*
X141224000Y-93195082D02*
X140716000Y-93110415D01*
X140716000Y-84582000D01*
X141224000Y-84582000D01*
X141224000Y-93195082D01*
G36*
X143764000Y-93110415D02*
X143256000Y-93195082D01*
X143256000Y-84582000D01*
X143764000Y-84582000D01*
X143764000Y-93110415D01*
X143764000Y-93110415D01*
G37*
X143764000Y-93110415D02*
X143256000Y-93195082D01*
X143256000Y-84582000D01*
X143764000Y-84582000D01*
X143764000Y-93110415D01*
G36*
X146304000Y-93218000D02*
X145796000Y-93218000D01*
X145796000Y-84582000D01*
X146304000Y-84582000D01*
X146304000Y-93218000D01*
X146304000Y-93218000D01*
G37*
X146304000Y-93218000D02*
X145796000Y-93218000D01*
X145796000Y-84582000D01*
X146304000Y-84582000D01*
X146304000Y-93218000D01*
G36*
X148844000Y-93195082D02*
X148336000Y-93110415D01*
X148336000Y-84582000D01*
X148844000Y-84582000D01*
X148844000Y-93195082D01*
X148844000Y-93195082D01*
G37*
X148844000Y-93195082D02*
X148336000Y-93110415D01*
X148336000Y-84582000D01*
X148844000Y-84582000D01*
X148844000Y-93195082D01*
G36*
X151384000Y-93218000D02*
X150876000Y-93218000D01*
X150876000Y-84582000D01*
X151384000Y-84582000D01*
X151384000Y-93218000D01*
X151384000Y-93218000D01*
G37*
X151384000Y-93218000D02*
X150876000Y-93218000D01*
X150876000Y-84582000D01*
X151384000Y-84582000D01*
X151384000Y-93218000D01*
M02*
